<svg preserveAspectRatio="none" overflow="visible" style="display: block;" width="20" height="20" viewBox="0 0 20 20" fill="none" xmlns="http://www.w3.org/2000/svg">
<g id="Icon">
<path id="Icon: HandPalm" d="M18 8.46429V12.5357C18 14.5154 17.2098 16.4139 15.8033 17.8138C14.3968 19.2136 12.4891 20 10.5 20C8.51088 20 6.60322 19.2136 5.1967 17.8138C3.79018 16.4139 3 14.5154 3 12.5357V5.07143C3 4.71149 3.14367 4.3663 3.3994 4.11178C3.65513 3.85727 4.00198 3.71429 4.36364 3.71429C4.7253 3.71429 5.07214 3.85727 5.32787 4.11178C5.5836 4.3663 5.72727 4.71149 5.72727 5.07143V9.82143C5.72727 10.0014 5.79911 10.174 5.92697 10.3013C6.05484 10.4285 6.22826 10.5 6.40909 10.5C6.58992 10.5 6.76334 10.4285 6.89121 10.3013C7.01907 10.174 7.09091 10.0014 7.09091 9.82143V2.35714C7.09091 1.99721 7.23458 1.65201 7.49031 1.3975C7.74604 1.14298 8.09289 1 8.45455 1C8.8162 1 9.16305 1.14298 9.41878 1.3975C9.67451 1.65201 9.81818 1.99721 9.81818 2.35714V9.14286C9.81818 9.32283 9.89002 9.49542 10.0179 9.62268C10.1457 9.74994 10.3192 9.82143 10.5 9.82143C10.6808 9.82143 10.8543 9.74994 10.9821 9.62268C11.11 9.49542 11.1818 9.32283 11.1818 9.14286V3.71429C11.1818 3.35435 11.3255 3.00915 11.5812 2.75464C11.8369 2.50013 12.1838 2.35714 12.5455 2.35714C12.9071 2.35714 13.254 2.50013 13.5097 2.75464C13.7654 3.00915 13.9091 3.35435 13.9091 3.71429V10.5568C12.9564 10.7185 12.0918 11.21 11.468 11.9446C10.8442 12.6792 10.5013 13.6096 10.5 14.5714C10.5 14.7514 10.5718 14.924 10.6997 15.0513C10.8276 15.1785 11.001 15.25 11.1818 15.25C11.3626 15.25 11.5361 15.1785 11.6639 15.0513C11.7918 14.924 11.8636 14.7514 11.8636 14.5714C11.8636 13.8516 12.151 13.1612 12.6624 12.6521C13.1739 12.1431 13.8676 11.8571 14.5909 11.8571C14.7717 11.8571 14.9452 11.7857 15.073 11.6584C15.2009 11.5311 15.2727 11.3585 15.2727 11.1786V8.46429C15.2727 8.10435 15.4164 7.75915 15.6721 7.50464C15.9279 7.25013 16.2747 7.10714 16.6364 7.10714C16.998 7.10714 17.3449 7.25013 17.6006 7.50464C17.8563 7.75915 18 8.10435 18 8.46429Z" fill="white"/>
</g>
</svg>
